<svg width="24" height="24" viewBox="0 0 24 24" fill="none" xmlns="http://www.w3.org/2000/svg">
<path d="M12.4223 16.8671C11.3156 15.981 9.52127 15.981 8.41464 16.8671C7.30914 17.7536 7.30914 19.1903 8.41464 20.0768C9.52089 20.9633 11.3153 20.9633 12.4223 20.0768C13.5281 19.1903 13.5281 17.7536 12.4223 16.8671ZM8.16977 15.5888C9.02739 14.5234 8.73714 13.1775 7.52214 12.5835C6.30677 11.9899 4.62714 12.372 3.76952 13.4374C2.91302 14.5028 3.20252 15.8486 4.41714 16.4426C5.63289 17.037 7.31289 16.6545 8.16977 15.5888M7.00614 10.5068C7.82702 9.5895 7.62864 8.36438 6.56252 7.77038C5.49677 7.176 3.96789 7.43775 3.14664 8.355C2.32539 9.27225 2.52414 10.497 3.58989 11.091C4.65564 11.6854 6.18527 11.4236 7.00614 10.5068ZM7.76252 7.2405C8.78177 7.83375 10.2634 7.608 11.0711 6.73763C11.8793 5.86688 11.7086 4.68075 10.6898 4.08788C9.67089 3.49463 8.18927 3.72 7.38152 4.59038C6.57302 5.46113 6.74364 6.64725 7.76252 7.2405ZM16.3673 5.72663C17.2748 5.26275 17.3756 4.3515 16.5923 3.69038C15.8096 3.02925 14.4375 2.86913 13.5296 3.33263C12.6214 3.79613 12.5209 4.70775 13.3043 5.36888C14.0876 6.03 15.4598 6.19013 16.3673 5.72663Z" fill="black"/>
<path d="M19.6781 12.4496C18.8666 12.2111 18.1665 12.0049 17.9741 11.5275C17.8628 11.2507 17.9063 10.8442 18.0953 10.3196C20.1075 8.43712 23.118 5.40375 23.0333 4.17113C22.9995 3.67838 22.2143 2.97263 21.6994 2.97263L21.6589 2.97413C21.1016 3.01238 20.25 3.74963 19.3403 4.74788C19.264 4.5189 19.1659 4.29776 19.0474 4.0875C18.093 2.44312 15.9949 1.5 13.2915 1.5C11.1896 1.5 8.84927 2.07938 6.52464 3.1755C3.54077 4.5825 1.31214 7.5165 0.847143 10.6508C0.501393 12.978 0.914643 16.4978 4.84389 20.0539C6.58614 21.6315 9.32964 22.5 12.5678 22.5H12.5689C15.1684 22.5 17.802 21.9214 19.7955 20.9138C22.0234 19.7869 23.25 18.2284 23.25 16.5248C23.25 13.5 21.1853 12.8929 19.6781 12.4496ZM21.6994 3.53513C21.936 3.53513 22.4595 4.02638 22.4719 4.20938C22.5435 5.253 18.8258 8.952 16.3406 11.1577L15.9169 10.7891L15.6398 10.5472C17.4893 7.788 20.652 3.60638 21.6994 3.53513M14.7248 11.6475L15.2955 10.9931L15.9446 11.5594L15.375 12.2134L14.7248 11.6475M19.4573 20.244C17.565 21.201 15.0548 21.75 12.5689 21.75H12.5681C9.51564 21.75 6.95139 20.9501 5.34714 19.4977C1.66314 16.1644 1.26977 12.9067 1.58814 10.7606C2.01789 7.86787 4.08114 5.157 6.84527 3.85388C9.07014 2.80463 11.2995 2.25 13.2915 2.25C15.6851 2.25 17.5939 3.07763 18.3983 4.464C18.5715 4.76213 18.6878 5.08088 18.7553 5.41463C17.076 7.39575 15.3705 9.9345 15.0446 10.4243L14.0033 11.6183C13.4565 11.6126 12.909 11.8515 12.7403 12.4286C12.1185 14.5493 10.7336 15.8644 10.7336 15.8644C10.7336 15.8644 14.244 15.1706 14.9156 14.3824C15.2794 13.9556 15.4556 13.4456 15.4515 12.9806L16.542 11.7304C16.6875 11.6025 16.9039 11.4101 17.1705 11.1694C17.169 11.4034 17.2013 11.6171 17.2778 11.8076C17.6059 12.6221 18.5093 12.8876 19.4659 13.1689C20.9573 13.6076 22.4996 14.061 22.4996 16.5248C22.5 17.931 21.4189 19.2518 19.4573 20.244" fill="black"/>
<path d="M20.2954 14.9276C19.1892 14.0415 17.3944 14.0415 16.2882 14.9276C15.1819 15.8137 15.1823 17.2508 16.2882 18.1373C17.394 19.0238 19.1888 19.0234 20.2954 18.1373C21.402 17.2511 21.4017 15.8137 20.2954 14.9276ZM19.7505 17.7004C18.9454 18.3458 17.6382 18.3458 16.8334 17.7004C16.0283 17.055 16.0283 16.0091 16.8334 15.3641C17.6382 14.7188 18.9454 14.7188 19.7505 15.3641C20.5557 16.0095 20.5557 17.055 19.7505 17.7004" fill="black"/>
</svg>
