<svg width="24" height="24" viewBox="0 0 24 24" fill="none" xmlns="http://www.w3.org/2000/svg">
<path d="M18.99 2.55258C18.2397 2.11928 17.4114 1.83802 16.5523 1.72487C15.6933 1.61171 14.8204 1.66888 13.9835 1.89309C13.1465 2.11731 12.362 2.50419 11.6746 3.03164C10.9871 3.55909 10.4104 4.21678 9.97715 4.96715L9.72858 5.39744C9.64351 5.5451 9.62055 5.7205 9.66475 5.88509C9.70895 6.04967 9.81669 6.18997 9.96429 6.27515L14.6452 8.97772L11.844 13.8806L11.7857 13.8797C9.07887 13.8797 6.73458 15.45 5.33829 17.67C5.57669 17.5854 5.83089 17.5547 6.08257 17.5802C6.33425 17.6057 6.57714 17.6867 6.79372 17.8174C8.00401 16.218 9.80915 15.1654 11.7857 15.1654C13.8463 15.1654 15.7209 16.3097 16.9286 18.0249C17.0955 17.8711 17.2914 17.7521 17.5047 17.6747C17.7181 17.5973 17.9447 17.5631 18.1714 17.574C17.0306 15.81 15.2854 14.4712 13.2377 14.0332L15.7586 9.62058L20.2783 12.2306C20.3514 12.2728 20.4322 12.3003 20.516 12.3113C20.5997 12.3223 20.6848 12.3167 20.7664 12.2948C20.848 12.2729 20.9245 12.2352 20.9915 12.1837C21.0585 12.1322 21.1147 12.0681 21.1569 11.9949L21.4054 11.5654C21.8387 10.8151 22.1199 9.98669 22.233 9.12763C22.3461 8.26857 22.2889 7.39564 22.0646 6.5587C21.8403 5.72176 21.4533 4.9372 20.9258 4.24982C20.3982 3.56245 19.7405 2.98572 18.99 2.55258V2.55258ZM17.1129 8.91772L14.406 7.35429C14.8963 6.59915 15.3626 6.02401 15.9214 5.51572C16.4657 5.02029 17.1154 4.57286 17.9966 4.08601C18.1269 4.90458 18.1663 5.58601 18.0823 6.25458C17.9829 7.05344 17.7009 7.87715 17.1112 8.91686L17.1129 8.91772ZM18.2254 9.56058C18.8769 8.41372 19.2334 7.42629 19.3594 6.41486C19.4426 5.75144 19.4237 5.09658 19.3406 4.40486C20.1905 5.20877 20.7514 6.27068 20.9363 7.42587C21.1212 8.58107 20.9197 9.76499 20.3632 10.794L18.2254 9.55972V9.56058ZM15.0574 4.56515C14.3803 5.18144 13.836 5.86715 13.2917 6.71144L11.166 5.48401C11.7658 4.50897 12.6643 3.75365 13.728 3.33048C14.7916 2.90731 15.9635 2.8389 17.0692 3.13544C16.2729 3.59401 15.6249 4.04829 15.0574 4.56515V4.56515ZM6.52029 19.0834C6.47628 18.9512 6.39046 18.8368 6.27577 18.7575C6.16108 18.6783 6.02374 18.6385 5.88445 18.6441C5.74517 18.6497 5.61147 18.7004 5.50353 18.7886C5.39559 18.8769 5.31925 18.9978 5.28601 19.1332C5.06744 20.0263 4.65344 20.5166 4.18201 20.8012C3.68829 21.0994 3.05915 21.2143 2.35715 21.2143C2.18666 21.2143 2.02314 21.282 1.90258 21.4026C1.78202 21.5231 1.71429 21.6867 1.71429 21.8572C1.71429 22.0276 1.78202 22.1912 1.90258 22.3117C2.02314 22.4323 2.18666 22.5 2.35715 22.5C3.17744 22.5 4.07144 22.3697 4.84629 21.9017C5.3087 21.6228 5.69848 21.2383 5.98372 20.7797C7.51715 22.7357 10.5112 22.7254 12 20.7592C13.5129 22.7563 16.5772 22.7357 18.0883 20.6854C18.4985 21.2438 19.0335 21.6987 19.6507 22.0137C20.2678 22.3287 20.95 22.4953 21.6429 22.5C21.8134 22.5 21.9769 22.4323 22.0974 22.3117C22.218 22.1912 22.2857 22.0276 22.2857 21.8572C22.2857 21.6867 22.218 21.5231 22.0974 21.4026C21.9769 21.282 21.8134 21.2143 21.6429 21.2143C20.3786 21.2143 19.1186 20.3914 18.7029 19.0903C18.6617 18.9608 18.5806 18.8477 18.4712 18.7672C18.3618 18.6866 18.2296 18.6429 18.0938 18.6421C17.9579 18.6413 17.8253 18.6836 17.715 18.7629C17.6047 18.8422 17.5223 18.9544 17.4797 19.0834C16.6543 21.5769 13.4186 21.5452 12.6077 19.1872C12.5641 19.0607 12.4821 18.951 12.3732 18.8733C12.2642 18.7957 12.1338 18.7539 12 18.7539C11.8662 18.7539 11.7358 18.7957 11.6268 18.8733C11.5179 18.951 11.4359 19.0607 11.3923 19.1872C10.5814 21.5452 7.34658 21.5769 6.52029 19.0843V19.0834Z" fill="black"/>
</svg>
