<svg width="24" height="24" viewBox="0 0 24 24" fill="none" xmlns="http://www.w3.org/2000/svg">
<g clip-path="url(#clip0_110_124)">
<path d="M19.4 18.0667C18.6666 18 17.9333 18.2667 17.3333 18.8C16.6 19.5333 15.4 19.5333 14.6 18.8C13.9333 18.3333 13.2 18.0667 12.4 18.0667C11.6 18 10.8 18.2667 10.2 18.8C9.79998 19.1333 9.33331 19.3333 8.79998 19.3333C8.26665 19.3333 7.79998 19.1333 7.39998 18.8C6.73331 18.2667 5.93331 18 5.13331 18C4.33331 18 3.53331 18.2667 2.86665 18.8C2.46665 19.1333 1.86665 19.3333 1.33331 19.3333V20.6667C2.19998 20.7333 3.06665 20.4667 3.73331 19.8667C4.13331 19.5333 4.73331 19.3333 5.26665 19.3333C5.73331 19.3333 6.26665 19.5333 6.66665 19.8667C7.86665 20.9333 9.73331 20.9333 11 19.8667C11.4 19.5333 11.8666 19.3333 12.4 19.3333C12.8666 19.3333 13.3333 19.5333 13.7333 19.8667C15 20.9333 16.8 20.9333 18.0666 19.8667C18.4 19.5333 18.9333 19.3333 19.4 19.3333C19.8666 19.3333 20.3333 19.5333 20.6666 19.8667C21.2666 20.3333 21.9333 20.6 22.6666 20.6667V19.3333C22 19.3333 21.8666 19.0667 21.5333 18.8C20.9333 18.3333 20.2 18.0667 19.4 18.0667V18.0667Z" fill="black"/>
<path d="M4 15.3333C4 14.9333 4.33334 14.6667 4.73334 14.6667H21.3333L19 16.7333H19.1333C19.6667 16.7333 20.2 16.8667 20.6 17.0667L22.2667 15.6L22.4 15.4667C22.8667 14.9333 22.8 14.0667 22.2667 13.6C22 13.4667 21.7333 13.3333 21.4 13.3333H4.73334C3.6 13.3333 2.73334 14.2 2.73334 15.3333V17.4667C3.06667 17.1333 3.53334 16.9333 4 16.7333V15.3333V15.3333Z" fill="black"/>
<path d="M5.93331 12.6667H9.99997V7.46667C9.99997 7.06667 9.79997 6.66667 9.46664 6.40001C8.86664 5.93334 7.99997 6.06667 7.59997 6.66667L4.86664 10.6C4.59997 11 4.59997 11.5333 4.79997 12C4.99997 12.4 5.46664 12.6667 5.93331 12.6667V12.6667ZM8.73331 7.46667L8.66664 11.3333H5.93331L8.73331 7.46667Z" fill="black"/>
<path d="M17.3334 12C17.6 11.6 17.6 11.0667 17.3334 10.6667L13.1334 3.73335C12.8667 3.33335 12.4667 3.06668 12 3.06668C11.2667 3.06668 10.6667 3.66668 10.6667 4.40001V12.6667H16.2C16.6667 12.6667 17.1334 12.4 17.3334 12ZM11.9334 4.40001L16.2 11.4H11.9334V4.40001Z" fill="black"/>
</g>
<defs>
<clipPath id="clip0_110_124">
<rect width="24" height="24" fill="white"/>
</clipPath>
</defs>
</svg>
