<svg width="24" height="24" viewBox="0 0 24 24" fill="none" xmlns="http://www.w3.org/2000/svg">
<path d="M20.25 19.875H15.375V16.5H16.125C17.7155 16.4975 19.2402 15.8646 20.3649 14.7399C21.4896 13.6152 22.1225 12.0905 22.125 10.5C22.125 9.90326 21.8879 9.33097 21.466 8.90901C21.044 8.48705 20.4717 8.25 19.875 8.25C19.2783 8.25 18.706 8.48705 18.284 8.90901C17.8621 9.33097 17.625 9.90326 17.625 10.5C17.625 10.8978 17.467 11.2794 17.1857 11.5607C16.9044 11.842 16.5228 12 16.125 12H15.375V5.25C15.375 4.35489 15.0194 3.49645 14.3865 2.86351C13.7535 2.23058 12.8951 1.875 12 1.875C11.1049 1.875 10.2465 2.23058 9.61351 2.86351C8.98058 3.49645 8.625 4.35489 8.625 5.25V8.25H7.875C7.47718 8.25 7.09564 8.09196 6.81434 7.81066C6.53304 7.52936 6.375 7.14782 6.375 6.75C6.375 6.15326 6.13795 5.58097 5.71599 5.15901C5.29403 4.73705 4.72174 4.5 4.125 4.5C3.52826 4.5 2.95597 4.73705 2.53401 5.15901C2.11205 5.58097 1.875 6.15326 1.875 6.75C1.87748 8.34054 2.51042 9.86522 3.6351 10.9899C4.75978 12.1146 6.28446 12.7475 7.875 12.75H8.625V19.875H3.75C3.65054 19.875 3.55516 19.9145 3.48484 19.9848C3.41451 20.0552 3.375 20.1505 3.375 20.25C3.375 20.3495 3.41451 20.4448 3.48484 20.5152C3.55516 20.5855 3.65054 20.625 3.75 20.625H20.25C20.3495 20.625 20.4448 20.5855 20.5152 20.5152C20.5855 20.4448 20.625 20.3495 20.625 20.25C20.625 20.1505 20.5855 20.0552 20.5152 19.9848C20.4448 19.9145 20.3495 19.875 20.25 19.875ZM9 12H7.875C6.48261 12 5.14726 11.4469 4.16269 10.4623C3.17812 9.47774 2.625 8.14239 2.625 6.75C2.625 6.35218 2.78304 5.97064 3.06434 5.68934C3.34564 5.40804 3.72718 5.25 4.125 5.25C4.52282 5.25 4.90436 5.40804 5.18566 5.68934C5.46696 5.97064 5.625 6.35218 5.625 6.75C5.62747 7.34598 5.86531 7.91684 6.28674 8.33826C6.70816 8.75969 7.27902 8.99753 7.875 9H9C9.09946 9 9.19484 8.96049 9.26517 8.89017C9.33549 8.81984 9.375 8.72446 9.375 8.625V5.25C9.375 4.55381 9.65156 3.88613 10.1438 3.39384C10.6361 2.90156 11.3038 2.625 12 2.625C12.6962 2.625 13.3639 2.90156 13.8562 3.39384C14.3484 3.88613 14.625 4.55381 14.625 5.25V12.375C14.625 12.4745 14.6645 12.5698 14.7348 12.6402C14.8052 12.7105 14.9005 12.75 15 12.75H16.125C16.721 12.7475 17.2918 12.5097 17.7133 12.0883C18.1347 11.6668 18.3725 11.096 18.375 10.5C18.375 10.1022 18.533 9.72064 18.8143 9.43934C19.0956 9.15804 19.4772 9 19.875 9C20.2728 9 20.6544 9.15804 20.9357 9.43934C21.217 9.72064 21.375 10.1022 21.375 10.5C21.375 11.8924 20.8219 13.2277 19.8373 14.2123C18.8527 15.1969 17.5174 15.75 16.125 15.75H15C14.9005 15.75 14.8052 15.7895 14.7348 15.8598C14.6645 15.9302 14.625 16.0255 14.625 16.125V19.875H9.375V12.375C9.375 12.2755 9.33549 12.1802 9.26517 12.1098C9.19484 12.0395 9.09946 12 9 12V12Z" fill="black"/>
</svg>
