<svg width="24" height="24" viewBox="0 0 24 24" fill="none" xmlns="http://www.w3.org/2000/svg">
<path d="M5.71538 8.24999C5.71538 7.87349 5.403 7.56824 5.0175 7.56824C4.63238 7.56824 4.31888 7.87349 4.31888 8.24999V10.2952H5.71575V8.24999H5.71538ZM19.6811 8.24999C19.6811 7.87349 19.3684 7.56824 18.9825 7.56824C18.5978 7.56824 18.2846 7.87349 18.2846 8.24999V10.2952H19.6815V8.24999H19.6811Z" fill="#717171"/>
<path d="M22.125 2.98501C21.9275 2.62272 21.6937 2.28146 21.4271 1.96651C21.6596 1.65939 21.8925 1.40176 22.125 1.24201C21.1946 0.71851 20.2631 1.76476 19.3324 1.24201V1.09089C19.3324 0.903385 19.1752 0.75001 18.9825 0.75001C18.8911 0.749306 18.8032 0.784732 18.7378 0.848576C18.6724 0.912419 18.6349 0.99951 18.6334 1.09089V4.50001L16.1895 6.88651H16.8874V10.977H15.4909V8.25001H16.1891L12.3491 4.50001V2.98501C13.2806 3.50851 14.2118 2.46226 15.1425 2.98501C14.9449 2.6226 14.7108 2.28133 14.4439 1.96651C14.6771 1.65939 14.9096 1.40176 15.1425 1.24201C14.2118 0.71851 13.2806 1.76476 12.3491 1.24201V1.09089C12.3491 0.903385 12.1924 0.75001 12 0.75001C11.9086 0.749306 11.8207 0.784732 11.7553 0.848576C11.6899 0.912419 11.6524 0.99951 11.6509 1.09089V4.50001L7.81012 8.25001H8.50837V10.977H7.11188V6.88651H7.80975L5.36662 4.50001V2.98501C6.29737 3.50851 7.2285 2.46226 8.15963 2.98501C7.96203 2.6227 7.72807 2.28144 7.46137 1.96651C7.69387 1.65939 7.92713 1.40176 8.15963 1.24201C7.2285 0.71851 6.29737 1.76476 5.36662 1.24201V1.09089C5.36662 0.903385 5.2095 0.75001 5.0175 0.75001C4.8255 0.75001 4.668 0.903385 4.668 1.09089V4.50001L2.22375 6.88651H2.92162V10.977C2.34487 10.977 1.875 11.436 1.875 12V13.3635C1.875 13.7306 2.06025 14.1683 2.32613 14.4278L2.53088 14.6276C2.54138 14.643 2.5695 14.709 2.57362 14.7401L2.57288 22.227C2.57288 22.791 3.04275 23.25 3.62062 23.25H9.90488V21.8869H10.2536V22.5683C10.2536 22.5683 10.4797 22.9091 10.6031 22.9091C10.7265 22.9091 10.9522 22.5683 10.9522 22.5683V21.8869H11.6509V22.5683C11.6509 22.5683 11.8766 22.9091 12 22.9091C12.1234 22.9091 12.3491 22.5683 12.3491 22.5683V21.8869H13.0477V22.5683C13.0477 22.5683 13.2735 22.9091 13.3969 22.9091C13.5202 22.9091 13.7464 22.5683 13.7464 22.5683V21.8869H14.0951V23.25H20.3794C20.9573 23.25 21.4271 22.791 21.4271 22.227V14.727C21.4305 14.7086 21.4586 14.6426 21.4785 14.6179L21.6739 14.4274C21.9398 14.1683 22.125 13.7306 22.125 13.3635V12C22.125 11.436 21.6551 10.977 21.0776 10.977V6.88651H21.7759L19.3324 4.50001V2.98501C20.2631 3.50851 21.1946 2.46264 22.125 2.98501ZM9.20737 8.25001H14.7934V11.2429C14.6845 11.3368 14.5969 11.453 14.5366 11.5836C14.4763 11.7142 14.4447 11.8562 14.4439 12V13.023H13.7464V12C13.7464 11.556 13.4535 11.1814 13.0481 11.04V10.2953C13.0481 9.73051 12.5794 9.27263 12.0004 9.27263C11.4221 9.27263 10.9526 9.73051 10.9526 10.2953V11.04C10.5473 11.1814 10.2544 11.556 10.2544 12V13.023H9.55688V12C9.55688 11.6985 9.42038 11.4304 9.20775 11.2429V8.25001H9.20737ZM3.62062 6.88651H6.41325V11.2429C6.201 11.4304 6.0645 11.6985 6.0645 12V13.023H5.36625V12C5.36625 11.436 4.89637 10.977 4.3185 10.977H3.62062V6.88651ZM10.254 21.2048H9.90525V20.523H10.254V21.2048ZM10.254 19.8409H9.90525V19.1591H10.254V19.8409ZM10.254 18.477H9.90525C9.90525 18.2374 9.94988 18.009 10.0271 17.7953H10.2536V18.477H10.254ZM11.6509 21.2048H10.9522V20.523H11.6509V21.2048ZM11.6509 19.8409H10.9522V19.1591H11.6509V19.8409ZM11.6509 18.477H10.9522V17.7953H11.6509V18.477ZM10.9522 17.1135V16.7085C11.1689 16.5862 11.4054 16.5031 11.6509 16.4629V17.1135H10.9522ZM13.0477 21.2048H12.3491V20.523H13.0477V21.2048ZM13.0477 19.8409H12.3491V19.1591H13.0477V19.8409ZM13.0477 18.477H12.3491V17.7953H13.0477V18.477ZM12.3491 17.1135V16.4625C12.5946 16.5027 12.8311 16.5858 13.0477 16.7081V17.1131H12.3491V17.1135ZM13.746 19.1591H14.0947V19.8409H13.746V19.1591ZM13.746 18.477V17.7953H13.9725C14.0497 18.009 14.0944 18.2378 14.0944 18.477H13.746ZM13.746 21.2048V20.523H14.0947V21.2048H13.746ZM21.4271 12V13.3635C21.4271 13.551 21.3157 13.8131 21.18 13.9459L20.9756 14.1454C20.9648 14.1566 20.9546 14.1728 20.9434 14.1859C20.8828 14.1361 20.8072 14.1082 20.7289 14.1068H19.3324C19.1404 14.1068 18.9825 14.2601 18.9825 14.4473V15.129C18.9825 15.3165 19.1404 15.4703 19.3324 15.4703H20.7289V17.7949H19.5068C19.4153 17.7942 19.3273 17.8297 19.2619 17.8936C19.1965 17.9575 19.159 18.0447 19.1576 18.1361V18.8175C19.1576 19.005 19.3151 19.1584 19.5068 19.1584H20.7289V22.2266C20.7289 22.4141 20.5721 22.5675 20.3794 22.5675H17.5425C17.634 22.5684 17.7221 22.5331 17.7876 22.4692C17.8531 22.4053 17.8906 22.3181 17.892 22.2266V21.5449C17.892 21.3574 17.7349 21.2044 17.5425 21.2044H16.146C15.9544 21.2044 15.7965 21.3574 15.7965 21.5449V22.2266C15.7965 22.4141 15.9544 22.5675 16.146 22.5675H14.793V18.477C14.793 16.9714 13.5427 15.75 12 15.75C10.4576 15.75 9.20737 16.9714 9.20737 18.477V22.5679H8.61112C8.70257 22.5687 8.79063 22.5333 8.8561 22.4695C8.92157 22.4056 8.95914 22.3185 8.96063 22.227V21.5453C8.96063 21.3578 8.80275 21.2048 8.61112 21.2048H7.21425C7.12284 21.2038 7.03477 21.239 6.96932 21.3029C6.90388 21.3667 6.86641 21.4539 6.86512 21.5453V22.227C6.86512 22.4145 7.02188 22.5679 7.21425 22.5679H3.62062C3.52918 22.5687 3.44112 22.5333 3.37565 22.4695C3.31018 22.4056 3.27261 22.3185 3.27112 22.227V21.2044H4.49325C4.68563 21.2044 4.84238 21.0506 4.84238 20.8631V20.1818C4.84238 19.9943 4.68563 19.8409 4.49325 19.8409H3.2715V17.1135H4.49362C4.58503 17.1145 4.67311 17.0792 4.73855 17.0154C4.804 16.9516 4.84147 16.8644 4.84275 16.773V16.0913C4.84275 15.9038 4.686 15.7504 4.49362 15.7504H3.2715V14.7274C3.2715 14.5399 3.1605 14.2781 3.02475 14.1454L2.82037 13.9459C2.68462 13.8131 2.57325 13.551 2.57325 13.3635V12C2.57325 11.8125 2.73113 11.6591 2.92238 11.6591H4.31925C4.512 11.6591 4.66875 11.8125 4.66875 12V13.3635C4.66875 13.551 4.82625 13.7048 5.01825 13.7048H6.41437C6.60712 13.7048 6.7635 13.551 6.7635 13.3635V12C6.7635 11.8125 6.92137 11.6591 7.11337 11.6591H8.50988C8.70225 11.6591 8.859 11.8125 8.859 12V13.3635C8.859 13.551 9.01687 13.7048 9.20887 13.7048H10.605C10.7974 13.7048 10.9541 13.551 10.9541 13.3635V12C10.9541 11.8125 11.112 11.6591 11.3036 11.6591H12.7005C12.8929 11.6591 13.05 11.8125 13.05 12V13.3635C13.05 13.551 13.2075 13.7048 13.3991 13.7048H14.7956C14.988 13.7048 15.1451 13.551 15.1451 13.3635V12C15.1451 11.8125 15.3026 11.6591 15.4943 11.6591H16.8907C17.0831 11.6591 17.2406 11.8125 17.2406 12V13.3635C17.2406 13.551 17.3981 13.7048 17.5897 13.7048H18.9859C19.1786 13.7048 19.3358 13.551 19.3358 13.3635V12C19.3358 11.8125 19.4929 11.6591 19.6849 11.6591H21.0814C21.1723 11.6589 21.2596 11.6946 21.3244 11.7585C21.3891 11.8223 21.426 11.9091 21.4271 12M20.3794 6.88651V10.977H19.6815C19.1036 10.977 18.6337 11.436 18.6337 12V13.023H17.9355V12C17.9355 11.6985 17.7994 11.4304 17.5867 11.2429V6.88651H20.3794" fill="#717171"/>
<path d="M5.54062 17.7952H4.14449C4.05294 17.7944 3.96479 17.8299 3.89925 17.8938C3.83371 17.9577 3.7961 18.045 3.79462 18.1365V18.8179C3.79462 19.0054 3.95249 19.1587 4.14449 19.1587H5.54062C5.63206 19.1596 5.72014 19.1243 5.78557 19.0604C5.851 18.9965 5.88846 18.9093 5.88974 18.8179V18.1365C5.88974 17.949 5.73299 17.7952 5.54062 17.7952M7.87574 19.5H6.47924C6.38779 19.4992 6.29973 19.5346 6.23426 19.5984C6.16879 19.6623 6.13122 19.7494 6.12974 19.8409V20.5226C6.12974 20.7101 6.28724 20.8631 6.47924 20.8631H7.87574C7.96716 20.864 8.05522 20.8287 8.1207 20.7649C8.18618 20.7011 8.22376 20.614 8.22524 20.5226V19.8409C8.22524 19.6534 8.06774 19.5 7.87574 19.5ZM8.61112 16.773H7.21424C7.12286 16.7721 7.03484 16.8074 6.96942 16.8712C6.904 16.935 6.8665 17.0221 6.86512 17.1135V17.7952C6.86512 17.9827 7.02187 18.1365 7.21424 18.1365H8.61112C8.80274 18.1365 8.96062 17.9827 8.96062 17.7952V17.1135C8.96062 16.9264 8.80274 16.773 8.61112 16.773ZM7.63574 15.7264C7.82774 15.7264 7.98524 15.5726 7.98524 15.3851V14.7037C7.98524 14.5162 7.82774 14.3629 7.63574 14.3629H6.23887C6.14742 14.3621 6.05936 14.3974 5.99389 14.4613C5.92842 14.5252 5.89085 14.6123 5.88937 14.7037V15.3851C5.88937 15.5726 6.04724 15.7264 6.23887 15.7264H7.63574M18.1102 20.1817V20.8631C18.1102 21.0506 18.2677 21.2044 18.4594 21.2044H19.8559C20.0482 21.2044 20.2054 21.0506 20.2054 20.8631V20.1817C20.2054 19.9942 20.0482 19.8409 19.8559 19.8409H18.4594C18.368 19.8402 18.28 19.8756 18.2146 19.9394C18.1492 20.0033 18.1117 20.0904 18.1102 20.1817M18.6334 17.0096V16.3279C18.632 16.2365 18.5945 16.1493 18.5291 16.0854C18.4637 16.0216 18.3757 15.9862 18.2842 15.987H16.8874C16.796 15.9863 16.708 16.0217 16.6426 16.0856C16.5772 16.1494 16.5397 16.2365 16.5382 16.3279V17.0096C16.5382 17.1971 16.6957 17.3505 16.8874 17.3505H18.2842C18.3757 17.3514 18.4638 17.316 18.5292 17.2521C18.5946 17.1883 18.6321 17.1011 18.6334 17.0096M16.8877 18.3067H15.4912C15.3999 18.306 15.3119 18.3415 15.2465 18.4053C15.1811 18.4692 15.1436 18.5562 15.1421 18.6476V19.3294C15.1421 19.5169 15.2996 19.6699 15.4912 19.6699H16.8877C16.9792 19.6709 17.0674 19.6356 17.1329 19.5718C17.1985 19.508 17.2361 19.4208 17.2376 19.3294V18.6476C17.236 18.5561 17.1984 18.469 17.1329 18.4052C17.0673 18.3413 16.9792 18.3059 16.8877 18.3067M15.666 15.4706V14.7889C15.666 14.6014 15.5089 14.4476 15.3165 14.4476H13.92C13.8285 14.4469 13.7405 14.4824 13.6751 14.5463C13.6097 14.6102 13.5723 14.6974 13.5709 14.7889V15.4706C13.5709 15.6577 13.7284 15.8111 13.92 15.8111H15.3169C15.4082 15.8119 15.4962 15.7766 15.5616 15.7128C15.627 15.649 15.6645 15.562 15.666 15.4706" fill="#717171"/>
</svg>
