<svg width="24" height="24" viewBox="0 0 24 24" fill="none" xmlns="http://www.w3.org/2000/svg">
<path d="M9.15675 3.34865C8.97681 3.35469 8.80095 3.40391 8.64403 3.49218C8.17589 3.75749 7.85775 4.25146 7.46925 4.97905C7.08075 5.70655 6.64659 6.6853 6.10847 7.9424C5.03203 10.4564 3.54403 14.0822 1.25826 18.9316C1.23223 18.9847 1.21701 19.0424 1.2135 19.1013C1.20998 19.1603 1.21824 19.2194 1.23778 19.2752C1.25733 19.3309 1.28778 19.3822 1.32735 19.4261C1.36693 19.47 1.41484 19.5055 1.46829 19.5307C1.52175 19.5559 1.57967 19.5702 1.6387 19.5727C1.69773 19.5753 1.75668 19.5661 1.81212 19.5456C1.86755 19.5252 1.91836 19.4939 1.96159 19.4536C2.00482 19.4134 2.0396 19.3649 2.06391 19.311C4.35919 14.4416 5.85595 10.7947 6.92719 8.29241C7.46287 7.04132 7.89281 6.07645 8.2544 5.39929C8.61595 4.72227 8.93409 4.35088 9.08203 4.26702C9.156 4.22516 9.16514 4.22849 9.21234 4.24077C9.25969 4.25296 9.35934 4.30396 9.49359 4.43554C9.76228 4.6987 10.1342 5.25257 10.5864 6.04982C11.4807 7.62651 12.7306 10.1561 14.6777 13.5043C14.4597 14.0356 14.237 14.5649 14.0097 15.0923C13.9848 15.1462 13.971 15.2046 13.969 15.264C13.9671 15.3233 13.977 15.3825 13.9982 15.4379C14.0195 15.4934 14.0516 15.5441 14.0927 15.5869C14.1338 15.6298 14.183 15.664 14.2376 15.6876C14.2921 15.7111 14.3508 15.7235 14.4102 15.7241C14.4696 15.7246 14.5285 15.7132 14.5834 15.6906C14.6383 15.6681 14.6882 15.6347 14.7301 15.5926C14.7719 15.5504 14.8049 15.5003 14.8271 15.4453C15.7682 13.2644 16.4057 11.5496 16.8984 10.4545C17.1448 9.90698 17.3615 9.51416 17.5181 9.32512C17.5859 9.24332 17.6331 9.20952 17.6528 9.19771C17.6835 9.21459 17.8838 9.37987 18.1186 9.78215C18.3606 10.1965 18.6529 10.8226 19.002 11.6571C19.7001 13.3261 20.6326 15.8341 21.9698 19.2816C21.9905 19.3367 22.022 19.3872 22.0624 19.43C22.1027 19.4729 22.1512 19.5073 22.2049 19.5313C22.2587 19.5553 22.3167 19.5684 22.3755 19.5699C22.4344 19.5714 22.4929 19.5612 22.5478 19.5399C22.6027 19.5186 22.6528 19.4866 22.6952 19.4458C22.7377 19.4051 22.7716 19.3563 22.7951 19.3023C22.8186 19.2483 22.8312 19.1902 22.832 19.1314C22.8329 19.0725 22.8222 19.014 22.8003 18.9594C21.4653 15.5174 20.5353 13.014 19.8238 11.3129C19.468 10.4623 19.1678 9.81365 18.8877 9.33379C18.6076 8.85402 18.3678 8.51174 17.9605 8.35677C17.8587 8.3181 17.745 8.30118 17.6324 8.30409C17.5197 8.30699 17.4084 8.33001 17.3101 8.37299C17.1136 8.45877 16.9653 8.59659 16.8326 8.75671C16.5671 9.07715 16.3442 9.5136 16.0855 10.0883C15.8022 10.7179 15.4839 11.5173 15.1026 12.4613C13.3662 9.4341 12.2256 7.13394 11.3615 5.61023C10.8962 4.78991 10.5196 4.1947 10.1163 3.79963C9.91472 3.60215 9.69801 3.44582 9.43519 3.37776C9.34428 3.35466 9.25052 3.3448 9.1568 3.34851L9.15675 3.34865ZM9.39253 15.479C7.52015 15.479 6.003 17.3085 6.003 19.5659H12.7822C12.7822 17.3084 11.265 15.479 9.39258 15.479L9.39253 15.479Z" fill="black"/>
</svg>
