<svg width="24" height="24" viewBox="0 0 24 24" fill="none" xmlns="http://www.w3.org/2000/svg">
<path d="M1 6V17H2C2 17.5304 2.21071 18.0391 2.58579 18.4142C2.96086 18.7893 3.46957 19 4 19C4.53043 19 5.03914 18.7893 5.41421 18.4142C5.78929 18.0391 6 17.5304 6 17H18C18 17.5304 18.2107 18.0391 18.5858 18.4142C18.9609 18.7893 19.4696 19 20 19C20.5304 19 21.0391 18.7893 21.4142 18.4142C21.7893 18.0391 22 17.5304 22 17H23V6H1ZM21 15H19V9H17V15H15V9H13V15H11V9H9V15H7V9H5V15H3V8H21V15Z" fill="#717171"/>
</svg>
