<svg width="24" height="24" viewBox="0 0 24 24" fill="none" xmlns="http://www.w3.org/2000/svg">
<path d="M11.25 6.027V4.5H8.99996C8.80104 4.5 8.61028 4.42098 8.46963 4.28033C8.32897 4.13968 8.24996 3.94891 8.24996 3.75C8.24996 3.55109 8.32897 3.36032 8.46963 3.21967C8.61028 3.07902 8.80104 3 8.99996 3H15C15.1989 3 15.3896 3.07902 15.5303 3.21967C15.6709 3.36032 15.75 3.55109 15.75 3.75C15.75 3.94891 15.6709 4.13968 15.5303 4.28033C15.3896 4.42098 15.1989 4.5 15 4.5H12.75V6.027C14.1889 6.12968 15.5912 6.52776 16.8695 7.19642C18.1477 7.86508 19.2745 8.78996 20.1795 9.91337C21.0845 11.0368 21.7482 12.3346 22.1294 13.726C22.5106 15.1173 22.601 16.5722 22.395 18H1.60496C1.39892 16.5722 1.48931 15.1173 1.87049 13.726C2.25166 12.3346 2.91545 11.0368 3.82043 9.91337C4.72541 8.78996 5.85217 7.86508 7.13043 7.19642C8.4087 6.52776 9.81103 6.12968 11.25 6.027V6.027ZM2.99996 16.5H21C21 15.3181 20.7672 14.1478 20.3149 13.0558C19.8626 11.9639 19.1996 10.9718 18.3639 10.136C17.5282 9.30031 16.536 8.63738 15.4441 8.18508C14.3522 7.73279 13.1819 7.5 12 7.5C10.8181 7.5 9.64774 7.73279 8.55581 8.18508C7.46387 8.63738 6.47172 9.30031 5.636 10.136C4.80027 10.9718 4.13733 11.9639 3.68504 13.0558C3.23275 14.1478 2.99996 15.3181 2.99996 16.5V16.5ZM2.24996 19.5H21.75C21.9489 19.5 22.1396 19.579 22.2803 19.7197C22.4209 19.8603 22.5 20.0511 22.5 20.25C22.5 20.4489 22.4209 20.6397 22.2803 20.7803C22.1396 20.921 21.9489 21 21.75 21H2.24996C2.05104 21 1.86028 20.921 1.71963 20.7803C1.57897 20.6397 1.49996 20.4489 1.49996 20.25C1.49996 20.0511 1.57897 19.8603 1.71963 19.7197C1.86028 19.579 2.05104 19.5 2.24996 19.5V19.5Z" fill="black"/>
</svg>
