<svg width="24" height="24" viewBox="0 0 24 24" fill="none" xmlns="http://www.w3.org/2000/svg">
<path d="M12 2.25C7.866 2.25 4.5 5.616 4.5 9.75C4.5 12.513 6.01725 14.9175 8.25 16.2188V16.5L8.22675 17.25H8.25C8.28525 17.25 8.991 17.2703 9.72675 17.7188C10.377 18.114 11.0595 18.7762 11.2267 20.25H5.25V21.75H18.75V20.25H12.7733C12.9405 18.7762 13.623 18.114 14.2733 17.7188C15.0083 17.2703 15.7148 17.25 15.75 17.25H15.7733L15.75 16.5V16.2188C17.9827 14.9183 19.5 12.513 19.5 9.75C19.5 5.616 16.134 2.25 12 2.25ZM12 3.75C15.3225 3.75 18 6.4275 18 9.75C18 13.0725 15.3225 15.75 12 15.75C8.6775 15.75 6 13.0725 6 9.75C6 6.4275 8.6775 3.75 12 3.75ZM14.25 8.25C13.8375 8.25 13.5 8.5875 13.5 9C13.5 9.4125 13.8375 9.75 14.25 9.75C14.6625 9.75 15 9.4125 15 9C15 8.5875 14.6625 8.25 14.25 8.25ZM12.75 9.75C12.3375 9.75 12 10.0875 12 10.5C12 10.9125 12.3375 11.25 12.75 11.25C13.1625 11.25 13.5 10.9125 13.5 10.5C13.5 10.0875 13.1625 9.75 12.75 9.75ZM15 10.5C14.5875 10.5 14.25 10.8375 14.25 11.25C14.25 11.6625 14.5875 12 15 12C15.4125 12 15.75 11.6625 15.75 11.25C15.75 10.8375 15.4125 10.5 15 10.5ZM11.25 11.25C10.8375 11.25 10.5 11.5875 10.5 12C10.5 12.4125 10.8375 12.75 11.25 12.75C11.6625 12.75 12 12.4125 12 12C12 11.5875 11.6625 11.25 11.25 11.25ZM13.5 12C13.0875 12 12.75 12.3375 12.75 12.75C12.75 13.1625 13.0875 13.5 13.5 13.5C13.9125 13.5 14.25 13.1625 14.25 12.75C14.25 12.3375 13.9125 12 13.5 12ZM11.4608 17.25H12.5392C12.3347 17.4812 12.1541 17.7325 12 18C11.8459 17.7325 11.6653 17.4812 11.4608 17.25Z" fill="#717171"/>
</svg>
