<svg width="24" height="24" viewBox="0 0 24 24" fill="none" xmlns="http://www.w3.org/2000/svg">
<path d="M19 12C19 10.61 18.05 9.47 16.78 9.12C16.9642 8.66498 17.0337 8.17168 16.9825 7.68348C16.9313 7.19528 16.7609 6.72714 16.4863 6.32023C16.2118 5.91332 15.8414 5.58011 15.4079 5.3499C14.9743 5.11969 14.4909 4.99954 14 5C13.57 5 13.17 5.1 12.81 5.26C13 4.19 13.39 2.59 14.4 2.2L13.6 1C11.9 1.77 11.4 4.09 11.26 5.29C10.87 5.11 10.45 5 10 5C9.50912 4.99954 9.02565 5.11969 8.5921 5.3499C8.15856 5.58011 7.78822 5.91332 7.51365 6.32023C7.23909 6.72714 7.06871 7.19528 7.01751 7.68348C6.9663 8.17168 7.03584 8.66498 7.22 9.12C5.94 9.46 5 10.62 5 12C5 13.39 5.95 14.54 7.23 14.88C7.09 15.22 7 15.6 7 16C7 17.39 7.94 18.54 9.22 18.88C9.03584 19.335 8.9663 19.8283 9.01751 20.3165C9.06871 20.8047 9.23909 21.2729 9.51365 21.6798C9.78822 22.0867 10.1586 22.4199 10.5921 22.6501C11.0257 22.8803 11.5091 23.0005 12 23C12.4909 23.0005 12.9743 22.8803 13.4079 22.6501C13.8414 22.4199 14.2118 22.0867 14.4863 21.6798C14.7609 21.2729 14.9313 20.8047 14.9825 20.3165C15.0337 19.8283 14.9642 19.335 14.78 18.88C15.4165 18.7132 15.9797 18.34 16.3814 17.8188C16.7832 17.2977 17.0007 16.658 17 16C17 15.6 16.92 15.23 16.77 14.88C17.4077 14.7138 17.9724 14.3411 18.3758 13.82C18.7793 13.299 18.9988 12.659 19 12M16.31 9.88V9.9H16.3L16.31 9.88ZM14 6.5C14.83 6.5 15.5 7.17 15.5 8C15.5 8.83 14.83 9.5 14 9.5C13.17 9.5 12.5 8.83 12.5 8C12.5 7.17 13.17 6.5 14 6.5ZM13.5 12C13.5 12.83 12.83 13.5 12 13.5C11.17 13.5 10.5 12.83 10.5 12C10.5 11.17 11.17 10.5 12 10.5C12.83 10.5 13.5 11.17 13.5 12ZM10 6.5C10.83 6.5 11.5 7.17 11.5 8C11.5 8.83 10.83 9.5 10 9.5C9.17 9.5 8.5 8.83 8.5 8C8.5 7.17 9.17 6.5 10 6.5ZM6.5 12C6.5 11.17 7.17 10.5 8 10.5C8.83 10.5 9.5 11.17 9.5 12C9.5 12.83 8.83 13.5 8 13.5C7.17 13.5 6.5 12.83 6.5 12ZM8.5 16C8.5 15.17 9.17 14.5 10 14.5C10.83 14.5 11.5 15.17 11.5 16C11.5 16.83 10.83 17.5 10 17.5C9.17 17.5 8.5 16.83 8.5 16ZM12 21.5C11.17 21.5 10.5 20.83 10.5 20C10.5 19.17 11.17 18.5 12 18.5C12.83 18.5 13.5 19.17 13.5 20C13.5 20.83 12.83 21.5 12 21.5ZM14 17.5C13.17 17.5 12.5 16.83 12.5 16C12.5 15.17 13.17 14.5 14 14.5C14.83 14.5 15.5 15.17 15.5 16C15.5 16.83 14.83 17.5 14 17.5ZM16 13.5C15.17 13.5 14.5 12.83 14.5 12C14.5 11.17 15.17 10.5 16 10.5C16.83 10.5 17.5 11.17 17.5 12C17.5 12.83 16.83 13.5 16 13.5Z" fill="black"/>
</svg>
