<svg width="24" height="24" viewBox="0 0 24 24" fill="none" xmlns="http://www.w3.org/2000/svg">
<path d="M8.675 19C7.725 19 7.08333 18.8333 6.75 18.5C6.41667 18.1667 5.95 18 5.35 18C4.93333 18 4.596 18.0873 4.338 18.262C4.07933 18.4373 3.75 18.6083 3.35 18.775C3.01667 18.9083 2.70833 18.871 2.425 18.663C2.14167 18.4543 2 18.1583 2 17.775C2 17.5917 2.06667 17.4167 2.2 17.25C2.33333 17.0833 2.51667 16.95 2.75 16.85C3.08333 16.7167 3.40833 16.5417 3.725 16.325C4.04167 16.1083 4.575 16 5.325 16C6.29167 16 6.94167 16.1667 7.275 16.5C7.60833 16.8333 8.06667 17 8.65 17C9.28333 17 9.754 16.8333 10.062 16.5C10.3707 16.1667 11.0167 16 12 16C12.9833 16 13.6293 16.1667 13.938 16.5C14.246 16.8333 14.7167 17 15.35 17C15.9333 17 16.3917 16.8333 16.725 16.5C17.0583 16.1667 17.7083 16 18.675 16C19.425 16 19.9583 16.1083 20.275 16.325C20.5917 16.5417 20.9167 16.7167 21.25 16.85C21.4833 16.95 21.6667 17.0833 21.8 17.25C21.9333 17.4167 22 17.5917 22 17.775C22 18.1583 21.8623 18.4543 21.587 18.663C21.3123 18.871 21.0083 18.9167 20.675 18.8C20.2583 18.65 19.921 18.4793 19.663 18.288C19.4043 18.096 19.0667 18 18.65 18C18.05 18 17.5833 18.1667 17.25 18.5C16.9167 18.8333 16.275 19 15.325 19C14.3417 19 13.7 18.8333 13.4 18.5C13.1 18.1667 12.6333 18 12 18C11.3667 18 10.9 18.1667 10.6 18.5C10.3 18.8333 9.65833 19 8.675 19V19ZM5.75 15C5.35 15 4.96667 14.925 4.6 14.775C4.23333 14.625 3.90833 14.4083 3.625 14.125L2.95 13.45C2.76667 13.2667 2.671 13.0373 2.663 12.762C2.65433 12.4873 2.75 12.25 2.95 12.05C3.13333 11.8667 3.36267 11.7707 3.638 11.762C3.91267 11.754 4.15 11.8417 4.35 12.025L5.025 12.7C5.125 12.8 5.23767 12.875 5.363 12.925C5.48767 12.975 5.61667 13 5.75 13H7V9.625L6.475 10.025C6.24167 10.1917 5.996 10.254 5.738 10.212C5.47933 10.1707 5.26667 10.0333 5.1 9.8C4.93333 9.56667 4.86667 9.32067 4.9 9.062C4.93333 8.804 5.06667 8.59167 5.3 8.425L11.4 3.925C11.4833 3.85833 11.5793 3.81233 11.688 3.787C11.796 3.76233 11.9 3.75 12 3.75C12.1 3.75 12.204 3.76233 12.312 3.787C12.4207 3.81233 12.5167 3.85833 12.6 3.925L18.7 8.425C18.9333 8.59167 19.071 8.804 19.113 9.062C19.1543 9.32067 19.0917 9.56667 18.925 9.8C18.7583 10.0333 18.5377 10.1707 18.263 10.212C17.9877 10.254 17.7333 10.1917 17.5 10.025L17 9.65V13H18.25C18.3833 13 18.5123 12.975 18.637 12.925C18.7623 12.875 18.875 12.8 18.975 12.7L19.65 12.025C19.8333 11.8417 20.0623 11.75 20.337 11.75C20.6123 11.75 20.85 11.85 21.05 12.05C21.2333 12.2333 21.325 12.4667 21.325 12.75C21.325 13.0333 21.2333 13.2667 21.05 13.45L20.375 14.125C20.0917 14.4083 19.7667 14.625 19.4 14.775C19.0333 14.925 18.65 15 18.25 15H5.75ZM9 13H11V11H13V13H15V8.175L12 5.975L9 8.175V13ZM9 13H15H9Z" fill="#717171"/>
</svg>
