<svg width="24" height="24" viewBox="0 0 24 24" fill="none" xmlns="http://www.w3.org/2000/svg">
<g clip-path="url(#clip0_110_94)">
<path d="M1.45312 15.1642C1.45312 15.5527 1.76813 15.8674 2.15625 15.8674C2.33588 15.8674 2.4975 15.798 2.62163 15.6877C2.79 15.8014 2.99288 15.8674 3.21075 15.8674C3.42863 15.8674 3.6315 15.801 3.79988 15.6877C3.924 15.7984 4.086 15.8674 4.26525 15.8674C4.45173 15.8674 4.63057 15.7933 4.76243 15.6614C4.8943 15.5296 4.96837 15.3507 4.96837 15.1642C4.96837 14.9778 4.8943 14.7989 4.76243 14.6671C4.63057 14.5352 4.45173 14.4611 4.26525 14.4611C4.24387 14.4611 4.22362 14.4656 4.20262 14.4675C4.13142 14.2608 3.99762 14.0814 3.8198 13.9543C3.64198 13.8272 3.42897 13.7585 3.21037 13.758C3.04584 13.7583 2.88369 13.7973 2.737 13.8719C2.59031 13.9464 2.46318 14.0543 2.36588 14.187C2.30642 14.1384 2.23231 14.1111 2.1555 14.1097C2.10929 14.1097 2.06353 14.1188 2.02083 14.1364C1.97813 14.1541 1.93934 14.18 1.90667 14.2127C1.87399 14.2453 1.84808 14.2841 1.83042 14.3268C1.81277 14.3695 1.8037 14.4153 1.80375 14.4615C1.80375 14.4926 1.81387 14.5204 1.82175 14.5493C1.7106 14.609 1.61767 14.6978 1.55279 14.806C1.4879 14.9143 1.45347 15.038 1.45312 15.1642M19.0312 7.17188C20.802 7.17188 22.2424 5.7315 22.2424 3.96075C22.2424 2.19038 20.802 0.75 19.0312 0.75C17.2605 0.75 15.8201 2.19037 15.8201 3.96112C15.8205 5.7315 17.2605 7.17188 19.0312 7.17188ZM19.0312 1.5C19.3544 1.5 19.6745 1.56366 19.9731 1.68734C20.2717 1.81103 20.543 1.99231 20.7715 2.22085C21.0001 2.44938 21.1814 2.7207 21.305 3.01929C21.4287 3.31789 21.4924 3.63793 21.4924 3.96112C21.4924 4.28432 21.4287 4.60436 21.305 4.90296C21.1814 5.20155 21.0001 5.47287 20.7715 5.7014C20.543 5.92994 20.2717 6.11122 19.9731 6.23491C19.6745 6.35859 19.3544 6.42225 19.0312 6.42225C18.3785 6.42225 17.7525 6.16295 17.291 5.7014C16.8294 5.23985 16.5701 4.61386 16.5701 3.96112C16.5701 3.30839 16.8294 2.6824 17.291 2.22085C17.7525 1.7593 18.3785 1.5 19.0312 1.5ZM4.26562 3.65625H6.537C6.66632 3.87065 6.84881 4.04802 7.06679 4.17121C7.28477 4.29439 7.53087 4.3592 7.78125 4.35938H9.1875C9.98888 4.35938 10.6406 3.70763 10.6406 2.90625C10.6406 2.10487 9.98888 1.45312 9.1875 1.45312H9.0255C8.89621 1.2387 8.71372 1.06131 8.49574 0.938121C8.27775 0.814936 8.03164 0.750136 7.78125 0.75H4.26562C3.46425 0.75 2.8125 1.40175 2.8125 2.20312C2.8125 3.0045 3.46425 3.65625 4.26562 3.65625ZM4.26562 1.5H7.78125C8.16937 1.5 8.48438 1.815 8.48438 2.20312H9.1875C9.37001 2.20909 9.54304 2.28578 9.67004 2.41699C9.79703 2.5482 9.86803 2.72365 9.86803 2.90625C9.86803 3.08885 9.79703 3.2643 9.67004 3.39551C9.54304 3.52672 9.37001 3.60341 9.1875 3.60938H7.78125C7.59477 3.60937 7.41593 3.5353 7.28407 3.40343C7.1522 3.27157 7.07812 3.09273 7.07812 2.90625H4.26562C4.07914 2.90625 3.9003 2.83217 3.76844 2.70031C3.63658 2.56845 3.5625 2.38961 3.5625 2.20312C3.5625 2.01664 3.63658 1.8378 3.76844 1.70594C3.9003 1.57408 4.07914 1.5 4.26562 1.5M12.7031 5.41425H14.1094C14.9108 5.41425 15.5625 4.7625 15.5625 3.96112C15.5625 3.15975 14.9108 2.508 14.1094 2.508H12.7031C11.9017 2.508 11.25 3.15975 11.25 3.96112C11.25 4.7625 11.9017 5.41425 12.7031 5.41425ZM12.7031 3.258H14.1094C14.2919 3.26396 14.4649 3.34065 14.5919 3.47186C14.7189 3.60307 14.7899 3.77852 14.7899 3.96112C14.7899 4.14373 14.7189 4.31918 14.5919 4.45039C14.4649 4.5816 14.2919 4.65829 14.1094 4.66425H12.7031C12.5166 4.66425 12.3378 4.59017 12.2059 4.45831C12.0741 4.32645 12 4.14761 12 3.96112C12 3.77464 12.0741 3.5958 12.2059 3.46394C12.3378 3.33208 12.5166 3.258 12.7031 3.258Z" fill="black"/>
<path d="M21.1406 16.2188V14.37C21.7421 14.4143 22.4344 14.409 23.25 14.3314V13.4955C23.0156 13.5259 22.7768 13.5469 22.5353 13.5611C22.5555 13.4096 22.5262 13.2379 22.4276 13.053L21.9896 12.2299C22.206 12.0818 22.2637 11.8148 22.0999 11.5065L21.5925 10.5525C21.8325 10.4629 21.9169 10.2315 21.7721 9.96001L21.126 8.74651C20.9407 8.39739 20.6378 8.39739 20.4521 8.74651L19.806 9.96001C19.6609 10.2319 19.7456 10.4629 19.9856 10.5525L19.4783 11.5065C19.314 11.8144 19.3725 12.0821 19.5885 12.2299L19.1505 13.053C19.1321 13.0868 19.1235 13.1194 19.1096 13.1528C18.8685 13.0758 18.6312 12.9877 18.3983 12.8888C18.375 12.879 18.3514 12.87 18.3281 12.8606V11.2474C18.6294 11.1702 18.8965 10.9951 19.0874 10.7495C19.2784 10.504 19.3823 10.202 19.383 9.89101C19.383 9.51805 19.2348 9.16037 18.9711 8.89664C18.7074 8.63292 18.3497 8.48476 17.9767 8.48476H6.02362C5.75062 8.48476 5.49825 8.56576 5.28225 8.70039L3.21562 6.76951C2.93475 6.50701 2.56462 6.37576 2.19412 6.37576C1.39237 6.37539 0.75 7.16401 0.75 7.16401V8.18289C1.29263 7.60276 1.79063 7.12539 2.1945 7.12539C2.39063 7.12539 2.57138 7.19364 2.70375 7.31739L4.77638 9.25389C4.67309 9.45034 4.61843 9.6687 4.617 9.89064C4.61752 10.2017 4.72144 10.5037 4.9124 10.7493C5.10336 10.9948 5.37053 11.1699 5.67188 11.247V13.1509C5.22187 13.0639 4.81238 12.9469 4.47638 12.7958C3.56625 12.3863 2.31825 11.9918 0.75 12.0034V12.7886C1.85513 12.7241 3.3585 13.1153 4.16887 13.4801C4.62375 13.6849 5.148 13.8221 5.67188 13.9151V17.625H0.75V23.25H6.375V19.0313H7.07812V17.625H6.375V14.0126C6.63338 14.0408 6.8865 14.0629 7.119 14.0753C6.648 14.7829 6.60113 15.9304 9.29625 17.5526C13.4363 20.0453 9.42862 23.25 9.42862 23.25H15.4072C15.4072 23.25 17.0936 18.8876 11.187 16.8409C8.63288 15.9559 8.229 14.8219 8.289 14.0899C9.62963 14.058 10.8874 13.8585 11.7068 13.539C12.6506 13.1715 13.5889 12.8419 14.6932 12.8419H14.7319C15.6776 12.8483 16.6684 13.0373 17.625 13.3886V17.625H16.9219V19.0313H17.625V23.25H23.25V17.625H18.3281V13.6736C18.9217 13.9219 19.5795 14.1593 20.4375 14.2913V16.2188H21.1406ZM2.85938 20.7893H1.45312V20.0861H2.85938V20.7893ZM5.67188 21.4924H4.26562V20.7893H5.67188V21.4924ZM21.1406 19.7344H22.5469V20.4375H21.1406V19.7344ZM19.7344 21.8438H21.1406V22.5469H19.7344V21.8438ZM6.02362 10.2424C5.93033 10.2424 5.84087 10.2053 5.7749 10.1394C5.70893 10.0734 5.67188 9.98393 5.67188 9.89064C5.67188 9.79735 5.70893 9.70788 5.7749 9.64191C5.84087 9.57595 5.93033 9.53889 6.02362 9.53889C6.21825 9.53889 6.375 9.69601 6.375 9.89064C6.375 10.0853 6.21787 10.2424 6.02362 10.2424M7.91663 13.3466C7.40148 13.3474 6.88673 13.3181 6.375 13.2589V11.2973H6.963L9.10388 13.2971C8.70894 13.3295 8.31288 13.346 7.91663 13.3466M17.625 12.5936C16.7025 12.2816 15.726 12.0986 14.7371 12.0919H14.6936C13.4437 12.0919 12.4027 12.4631 11.4352 12.8404C11.0629 12.9855 10.5825 13.1006 10.0474 13.1854C9.98373 13.1052 9.9147 13.0294 9.84075 12.9585L8.06213 11.2969H17.625V12.5936M17.9767 10.2424C17.8835 10.2424 17.794 10.2053 17.728 10.1394C17.6621 10.0734 17.625 9.98393 17.625 9.89064C17.625 9.79735 17.6621 9.70788 17.728 9.64191C17.794 9.57595 17.8835 9.53889 17.9767 9.53889C18.07 9.53889 18.1595 9.57595 18.2255 9.64191C18.2914 9.70788 18.3285 9.79735 18.3285 9.89064C18.3285 9.98393 18.2914 10.0734 18.2255 10.1394C18.1595 10.2053 18.07 10.2424 17.9767 10.2424" fill="black"/>
</g>
<defs>
<clipPath id="clip0_110_94">
<rect width="24" height="24" fill="white"/>
</clipPath>
</defs>
</svg>
