<svg width="24" height="24" viewBox="0 0 24 24" fill="none" xmlns="http://www.w3.org/2000/svg">
<path d="M12.4188 1.03145L12.1413 2.41014L13.52 2.68764L13.5848 2.36593C13.6026 2.2703 13.6529 2.18376 13.7273 2.12097C13.8016 2.05818 13.8953 2.02301 13.9926 2.0214C14.0561 2.02037 14.119 2.03371 14.1767 2.06041C14.2344 2.08712 14.2853 2.1265 14.3256 2.17563C14.3659 2.22476 14.3946 2.28235 14.4095 2.34412C14.4244 2.40589 14.4252 2.47023 14.4118 2.53234L14.3471 2.85409L15.7257 3.1315L16.0032 1.75281L12.4188 1.0314V1.03145ZM11.2396 3.08926L10.8142 5.20314L11.4576 5.3327L11.6703 4.27567C11.6882 4.18006 11.7385 4.09355 11.8128 4.03079C11.8871 3.96803 11.9808 3.93288 12.0781 3.93128C12.3498 3.92682 12.5548 4.17657 12.4974 4.44217L12.2846 5.49911L12.9281 5.62857L13.1408 4.57159C13.1587 4.47597 13.209 4.38946 13.2834 4.3267C13.3577 4.26394 13.4514 4.22879 13.5487 4.2272C13.8203 4.2227 14.0254 4.47254 13.9679 4.73814L13.7551 5.79503L14.3986 5.9245L14.6114 4.86761C14.6292 4.77198 14.6795 4.68545 14.7539 4.62269C14.8282 4.55992 14.9219 4.52476 15.0192 4.52317C15.2908 4.51876 15.4957 4.76851 15.4384 5.03406L15.2257 6.091L15.8691 6.22047L16.2945 4.10659L11.2397 3.08926H11.2396ZM10.6477 6.03029L10.2223 8.14417L10.8657 8.27373L11.0784 7.21675C11.0963 7.12112 11.1466 7.0346 11.2209 6.97183C11.2953 6.90906 11.389 6.8739 11.4862 6.87231C11.7578 6.8679 11.9628 7.11765 11.9054 7.3832L11.6927 8.44018L12.3362 8.56961L12.5489 7.51267C12.5667 7.41704 12.617 7.33052 12.6914 7.26775C12.7657 7.20498 12.8594 7.16982 12.9567 7.16823C13.2283 7.16373 13.4333 7.41353 13.376 7.67907L13.1633 8.73611L13.8067 8.86548L14.0194 7.80864C14.0372 7.71301 14.0876 7.62649 14.1619 7.56372C14.2362 7.50095 14.3299 7.46579 14.4272 7.4642C14.6988 7.45975 14.9038 7.7095 14.8465 7.97509L14.6338 9.03207L15.2772 9.1615L15.7027 7.04767C13.7267 6.65612 12.4853 6.40009 10.6477 6.03029V6.03029ZM10.0558 8.97137L9.63033 11.0852L10.2738 11.2147L10.4865 10.1578C10.5043 10.0621 10.5546 9.97559 10.6289 9.9128C10.7033 9.85001 10.797 9.81484 10.8943 9.81325C11.166 9.80879 11.371 10.0586 11.3135 10.3242L11.1008 11.3812L11.7443 11.5107L11.957 10.4537C11.9748 10.358 12.0252 10.2715 12.0995 10.2088C12.1738 10.146 12.2675 10.1109 12.3648 10.1093C12.6364 10.1048 12.8414 10.3546 12.7841 10.6202L12.5714 11.6771L13.2148 11.8066L13.4275 10.7497C13.4453 10.654 13.4957 10.5675 13.57 10.5048C13.6443 10.442 13.738 10.4069 13.8353 10.4053C14.1069 10.4008 14.3119 10.6505 14.2546 10.9161L14.0419 11.9731L14.6852 12.1026L15.1107 9.9887C13.3983 9.64914 11.7029 9.30311 10.0558 8.97137V8.97137ZM9.46387 11.9123L9.03844 14.0262L9.68189 14.1557L9.89456 13.0987C9.91242 13.0031 9.96276 12.9166 10.0371 12.8538C10.1114 12.7911 10.2051 12.7559 10.3024 12.7543C10.5741 12.7498 10.7791 12.9997 10.7217 13.2653L10.5089 14.3222L11.1523 14.4517L11.3651 13.3947C11.383 13.2991 11.4333 13.2126 11.5076 13.1498C11.5819 13.0871 11.6756 13.0519 11.7728 13.0503C12.0445 13.0458 12.2496 13.2956 12.1922 13.5612L11.9794 14.6182L12.6228 14.7476L12.8356 13.6907C12.8535 13.5951 12.9038 13.5085 12.9781 13.4458C13.0524 13.383 13.1461 13.3478 13.2434 13.3462C13.5151 13.3417 13.7201 13.5916 13.6627 13.8572L13.4499 14.9141L14.0933 15.0436L14.5188 12.9297C12.8152 12.592 11.0322 12.2284 9.46387 11.9123V11.9123ZM8.87203 14.8533L8.44655 16.9672L9.08991 17.0967L9.30267 16.0397C9.32051 15.9441 9.37086 15.8576 9.44518 15.7948C9.51949 15.7321 9.61322 15.6969 9.71048 15.6953C9.98212 15.6909 10.1871 15.9406 10.1298 16.2062L9.91697 17.2632L10.5604 17.3927L10.7732 16.3357C10.7911 16.2401 10.8414 16.1536 10.9157 16.0908C10.99 16.0281 11.0837 15.9929 11.181 15.9913C11.4526 15.9868 11.6577 16.2366 11.6003 16.5022L11.3875 17.5592L12.0309 17.6886L12.2438 16.6316C12.2616 16.536 12.3119 16.4495 12.3862 16.3867C12.4605 16.324 12.5542 16.2888 12.6515 16.2872C12.9232 16.2827 13.1282 16.5325 13.0708 16.7981L12.858 17.8552L13.5014 17.9845L13.9268 15.8707C12.2079 15.53 10.3731 15.1556 8.87203 14.8533V14.8533ZM8.28 17.7943L7.85456 19.9082L8.49802 20.0378L8.71083 18.9807C8.72868 18.8851 8.77901 18.7986 8.85331 18.7359C8.92761 18.6731 9.0213 18.638 9.11855 18.6363C9.39023 18.6319 9.59527 18.8816 9.53789 19.1472L9.32508 20.2042L9.96853 20.3337L10.1813 19.2767C10.1992 19.1811 10.2495 19.0946 10.3238 19.0319C10.3981 18.9691 10.4918 18.934 10.5891 18.9324C10.8607 18.9279 11.0658 19.1776 11.0084 19.4432L10.7956 20.5002L11.439 20.6297L11.6519 19.5726C11.6697 19.477 11.72 19.3905 11.7943 19.3278C11.8686 19.265 11.9623 19.2298 12.0596 19.2282C12.3313 19.2237 12.5363 19.4736 12.4789 19.7392L12.2661 20.7962L12.9095 20.9256L13.335 18.8117C11.6314 18.4738 10.0446 18.1495 8.28005 17.7943H8.28ZM7.68816 20.7354L7.38019 22.2656H1.03125V23.1094H9.38812L9.39989 23.1117L9.40045 23.1094H22.9688V22.2656H12.6267L12.7431 21.7528C11.0241 21.412 9.18891 21.0376 7.68816 20.7354V20.7354ZM8.52666 21.5774C8.7983 21.573 9.00323 21.8227 8.94591 22.0883L8.90836 22.2656H8.0497L8.11889 21.9218C8.13673 21.8262 8.18708 21.7397 8.26139 21.6769C8.33571 21.6141 8.42944 21.579 8.5267 21.5774H8.52666ZM9.99713 21.8733C10.2277 21.8695 10.4095 22.0489 10.4245 22.2656H9.57923L9.58941 22.2178C9.60723 22.1222 9.65754 22.0356 9.73183 21.9728C9.80612 21.9101 9.89982 21.8749 9.99708 21.8732L9.99713 21.8733Z" fill="black"/>
</svg>
