<svg width="24" height="24" viewBox="0 0 24 24" fill="none" xmlns="http://www.w3.org/2000/svg">
<path d="M7.68088 0.995758C7.56265 1.26441 7.44554 1.53355 7.32955 1.80318C7.30968 1.84945 7.29585 1.88202 7.2763 1.92759C9.47662 3.52659 12.5974 4.2719 16.181 3.40316C16.1399 3.13741 16.0599 2.87913 15.9438 2.63657C13.1491 3.69257 9.78285 3.04452 7.68093 0.995758H7.68088ZM6.93683 2.72137C6.87908 2.85712 6.81913 2.9984 6.81726 3.0028C6.66885 3.39557 6.71085 3.67223 6.85715 3.95015C7.00387 4.22877 7.28507 4.49849 7.62543 4.72415C8.30629 5.17546 9.2338 5.44434 9.43073 5.48095C9.98535 5.58407 10.5347 5.37102 11.1758 5.10046C11.6782 4.8884 12.2347 4.64193 12.8608 4.60687C10.5751 4.54195 8.54648 3.84318 6.93683 2.72137V2.72137ZM16.1751 4.27106C15.1626 4.50088 14.1801 4.60968 13.2387 4.61174C13.2904 4.61634 13.3426 4.62257 13.3953 4.63059C14.0863 4.68754 14.4801 5.68982 14.8723 5.82252C14.9505 5.8439 15.0471 5.85112 15.2782 5.71392C15.7349 5.44284 16.0666 4.90363 16.1751 4.2711V4.27106ZM6.30093 4.64441C5.85402 6.62559 5.36615 8.7546 4.72719 10.7929C4.60091 12.3329 4.75785 13.2261 5.09348 14.0701C5.43098 14.9188 5.98073 15.7439 6.63023 17.0372C7.01816 17.1291 7.37146 17.1737 7.65023 17.1466C8.47415 17.0664 9.76316 16.3072 10.7798 15.5424C11.1745 15.2451 11.5587 14.9342 11.9318 14.6104C10.4139 14.5888 8.80762 14.5657 7.40427 14.5456L7.2846 14.4314C6.68123 13.8558 6.22574 12.9951 6.28241 12.1394L6.30848 11.7453C8.71396 11.8087 10.8219 11.9111 13.2037 12.0089C13.2632 11.8278 13.3228 11.6464 13.3829 11.4597C11.8605 11.1867 8.73313 10.6175 7.72288 10.3714C7.33269 10.2347 7.21035 9.71549 7.08726 9.37715C6.92868 8.93746 6.76701 8.38246 6.71179 7.84851L6.65263 7.27748L14.1797 8.8056C14.3807 8.0752 14.5636 7.34695 14.7107 6.65099C13.887 6.53788 13.8247 5.63052 13.2686 5.46473C12.6813 5.32302 12.1487 5.60563 11.5039 5.87784C10.8591 6.14999 10.1245 6.46809 9.27641 6.3104C8.90174 6.24074 7.98848 5.97712 7.1593 5.42746C6.84023 5.21596 6.5353 4.96091 6.30088 4.64441H6.30093ZM7.65768 8.34238C7.77088 8.78198 7.90105 9.19888 8.08396 9.58523C8.2619 9.62638 8.49955 9.67659 8.76557 9.7311L8.53073 8.51967L7.65768 8.34238ZM9.42538 8.70131L9.65929 9.90862C10.0932 9.99267 10.5274 10.0753 10.9619 10.1564L10.7912 8.97862L9.42538 8.70131ZM11.6696 9.15693L11.8379 10.3183C12.8355 10.5019 13.7299 10.6631 13.9916 10.7098L14.2401 9.67879L11.6696 9.15693ZM7.17182 12.6075C7.2658 12.9834 7.48883 13.4032 7.7608 13.7069L8.43369 13.7166L8.04571 12.6426C7.75246 12.6307 7.43938 12.6181 7.17182 12.6075ZM8.95621 12.6796L9.33548 13.7295L10.5675 13.7471L10.2539 12.7325C9.78407 12.7132 9.39098 12.6973 8.95621 12.6796V12.6796ZM11.1484 12.7692L11.4546 13.7598C12.0096 13.7677 12.5469 13.7754 13.0884 13.7829C13.2101 13.4654 13.3278 13.119 13.4147 12.862C13.0897 12.8487 12.1044 12.8083 11.1484 12.7692V12.7692ZM3.93857 13.0342C3.61598 13.8477 3.25991 14.6293 2.86143 15.3602C3.17952 15.5541 3.70082 15.8617 4.45987 16.2292C4.79633 16.3922 5.13944 16.541 5.4883 16.6753C5.02082 15.813 4.61076 15.1396 4.3094 14.3819C4.1443 13.9667 4.01816 13.5291 3.93857 13.0342ZM12.8381 14.9346C12.509 15.2317 11.9486 15.7189 11.287 16.2166C10.2247 17.0158 8.92944 17.8697 7.73193 17.9863C7.37296 18.0212 6.99271 17.9901 6.60477 17.914C6.51543 18.7453 6.29905 19.5827 5.97369 20.3436C11.0054 20.6608 15.4818 20.8027 20.8181 20.6806C20.8127 20.3025 20.7876 19.9497 20.7473 19.8128C20.5012 18.9751 19.7461 18.2874 18.7131 17.6768L17.621 19.6951L13.9937 20.2432L16.5254 16.6091C16.3017 16.5133 16.0777 16.4184 15.8534 16.3243L13.8737 19.0041L9.98873 19.1689L10.6066 18.435C10.6066 18.435 11.4415 17.4434 12.2932 16.4391C12.6429 16.0265 12.9937 15.6148 13.3455 15.2039C13.1747 15.1174 13.0055 15.0276 12.8381 14.9346V14.9346ZM14.4874 15.1731C14.1064 15.6088 13.7083 16.0773 13.363 16.4833L14.6608 16.5186L15.3176 15.6296L14.4874 15.1731ZM3.10349 16.4749C2.86058 17.7676 2.79623 18.9339 2.87193 20.133C3.6054 20.1861 4.33902 20.237 5.0728 20.2857C5.44729 19.5029 5.69694 18.5817 5.77823 17.6926C5.19702 17.5012 4.62013 17.2443 4.09218 16.9887C3.72857 16.8126 3.39543 16.6361 3.10349 16.4749V16.4749ZM17.5107 16.6563L16.9002 17.5471L17.6386 17.8898L18.1191 17.0343L17.5107 16.6563ZM12.6635 17.3081C12.3995 17.62 12.1358 17.9321 11.8724 18.2444L13.4348 18.1782L14.0496 17.3459L12.6635 17.3081ZM16.4105 18.2501L15.8075 19.1159L17.0791 18.9237L17.2362 18.6333L16.4105 18.2501ZM2.59494 20.957C2.4411 21.546 2.36423 22.5413 2.51966 23.0042H7.70291C7.82985 21.7098 17.5483 22.2293 17.6176 23.0042H21.5178C21.5868 22.6797 21.5975 21.772 21.437 21.5086C14.6522 21.6865 9.27585 21.4432 2.59494 20.957V20.957Z" fill="black"/>
</svg>
