<svg width="24" height="24" viewBox="0 0 24 24" fill="none" xmlns="http://www.w3.org/2000/svg">
<path d="M17.5752 4.9872C18.5516 4.9872 19.3431 4.19313 19.3431 3.2136C19.3431 2.23407 18.5516 1.44 17.5752 1.44C16.5989 1.44 15.8074 2.23407 15.8074 3.2136C15.8074 4.19313 16.5989 4.9872 17.5752 4.9872Z" fill="#717171"/>
<path d="M6.36481 20.257L0.480011 14.3371L0.482411 15.371L5.95969 20.8848C6.58897 21.5688 7.66705 20.7778 7.66705 20.7778L7.15009 20.2224C7.15009 20.2224 6.64081 20.5574 6.37729 20.2723L6.36481 20.257V20.257ZM0.480011 9.12001H6.72001V9.60001H0.480011V9.12001ZM22.8336 7.43713L23.52 7.76209L16.6824 21.6H15.9255L22.8336 7.43713ZM11.4869 6.30433L8.73505 9.49057C8.57329 9.69217 8.32513 9.81793 8.04817 9.81793C7.93108 9.81786 7.81515 9.79471 7.70702 9.74978C7.59889 9.70486 7.50069 9.63905 7.41802 9.55612C7.33536 9.47319 7.26987 9.37477 7.22529 9.26649C7.18072 9.15822 7.15794 9.04222 7.15825 8.92513C7.15825 8.65825 7.27297 8.42017 7.45825 8.25745L10.4242 4.83025C10.5079 4.72943 10.6128 4.6483 10.7314 4.59263C10.8501 4.53696 10.9795 4.50813 11.1106 4.50817L15.4056 4.50577C15.7215 4.50577 16.0037 4.63441 16.2125 4.83313L18.9509 7.57969L21.2199 5.30977C21.3843 5.16936 21.5935 5.09226 21.8098 5.09233C22.3191 5.09233 22.729 5.50609 22.729 6.01393C22.729 6.23617 22.6531 6.43777 22.5226 6.59761L19.7866 9.36241C18.9567 10.1952 18.2875 9.48817 18.2875 9.48817L16.6095 7.79713L13.9853 10.8394L16.3896 13.2504C16.3896 13.2504 16.896 13.7218 16.6066 14.6616L15.2592 20.6837C15.2064 20.9419 15.0662 21.1741 14.8622 21.341C14.6582 21.5079 14.4029 21.5994 14.1394 21.6C13.989 21.5998 13.8401 21.57 13.7012 21.5123C13.5623 21.4545 13.4362 21.37 13.33 21.2635C13.2237 21.1571 13.1395 21.0307 13.0822 20.8917C13.0248 20.7527 12.9953 20.6037 12.9955 20.4533C12.9955 20.3534 13.0056 20.257 13.0325 20.1648L14.1394 15.2222L11.4087 12.5616L9.05905 15.1877C9.05905 15.1877 8.67793 15.659 7.66993 15.6226L2.90545 15.6307C2.64194 15.6351 2.385 15.5484 2.17807 15.3852C1.97114 15.222 1.82691 14.9923 1.76977 14.735C1.73541 14.5894 1.73037 14.4383 1.75495 14.2907C1.77952 14.1431 1.83322 14.0018 1.91291 13.8751C1.9926 13.7484 2.09669 13.6389 2.21913 13.5528C2.34157 13.4667 2.47991 13.4059 2.62609 13.3738C2.72257 13.3522 2.81905 13.3421 2.91313 13.3474L7.01233 13.3574L13.0723 6.31201L11.4869 6.30433Z" fill="#717171"/>
<path d="M21.996 21.6806C21.9946 22.1448 21.6101 22.56 21.1488 22.56H7.20001V23.04H21.1469C21.9231 23.0443 22.5562 22.4453 22.56 21.6653L21.996 21.6806Z" fill="#717171"/>
</svg>
