<svg width="24" height="24" viewBox="0 0 24 24" fill="none" xmlns="http://www.w3.org/2000/svg">
<g clip-path="url(#clip0_112_4)">
<path d="M20.25 19.5C20.4531 19.5 20.6289 19.5742 20.7773 19.7227C20.9258 19.8711 21 20.0469 21 20.25C21 20.4531 20.9258 20.6289 20.7773 20.7773C20.6289 20.9258 20.4531 21 20.25 21H11.25C11.0469 21 10.8711 20.9258 10.7227 20.7773C10.5742 20.6289 10.5 20.4531 10.5 20.25C10.5 20.0469 10.5742 19.8711 10.7227 19.7227C10.8711 19.5742 11.0469 19.5 11.25 19.5H20.25ZM18.75 22.5C18.9531 22.5 19.1289 22.5742 19.2773 22.7227C19.4258 22.8711 19.5 23.0469 19.5 23.25C19.5 23.4531 19.4258 23.6289 19.2773 23.7773C19.1289 23.9258 18.9531 24 18.75 24H12.75C12.5469 24 12.3711 23.9258 12.2227 23.7773C12.0742 23.6289 12 23.4531 12 23.25C12 23.0469 12.0742 22.8711 12.2227 22.7227C12.3711 22.5742 12.5469 22.5 12.75 22.5H18.75ZM21.5391 16.5H24V18H6.29297C6.21484 18.5 6.16016 19 6.12891 19.5C6.09766 20 6.07031 20.4961 6.04688 20.9883C6.02344 21.4805 6.01172 21.9805 6.01172 22.4883C6.01172 22.9961 6.00781 23.5 6 24H1.5V21.7383C1.5 21.1055 1.52344 20.4805 1.57031 19.8633C1.61719 19.2461 1.68359 18.625 1.76953 18H0V16.5H2.01562C2.40625 14.5859 2.99609 12.7461 3.78516 10.9805C4.57422 9.21484 5.55078 7.54688 6.71484 5.97656C5.57422 5.9375 4.52734 5.69922 3.57422 5.26172C2.62109 4.82422 1.75 4.19922 0.960938 3.38672L0.433594 2.84766L0.984375 2.33203C1.79688 1.57422 2.6875 1 3.65625 0.609375C4.625 0.21875 5.66797 0.0195313 6.78516 0.0117188C8.00391 0.0117188 9.12109 0.238281 10.1367 0.691406C11.1523 1.14453 12.0859 1.80078 12.9375 2.66016C13.5391 2.67578 14.1211 2.76953 14.6836 2.94141C15.2461 3.11328 15.7695 3.34766 16.2539 3.64453C16.7383 3.94141 17.1797 4.29297 17.5781 4.69922C17.9766 5.10547 18.3164 5.55469 18.5977 6.04688C18.8789 6.53906 19.1016 7.06641 19.2656 7.62891C19.4297 8.19141 19.5078 8.77734 19.5 9.38672V10.1367H18.75C17.7188 10.1367 16.7539 9.91797 15.8555 9.48047C14.957 9.04297 14.1797 8.42187 13.5234 7.61719C12.9297 8.69531 12.1836 9.58203 11.2852 10.2773C10.3867 10.9727 9.33594 11.4609 8.13281 11.7422C7.79688 12.5156 7.5 13.2969 7.24219 14.0859C6.98438 14.875 6.76172 15.6797 6.57422 16.5H9.96094C10.1328 15.8438 10.4023 15.2422 10.7695 14.6953C11.1367 14.1484 11.5742 13.6719 12.082 13.2656C12.5898 12.8594 13.1602 12.5508 13.793 12.3398C14.4258 12.1289 15.0781 12.0156 15.75 12C16.4297 12 17.082 12.1094 17.707 12.3281C18.332 12.5469 18.8984 12.8594 19.4062 13.2656C19.9141 13.6719 20.3555 14.1445 20.7305 14.6836C21.1055 15.2227 21.375 15.8281 21.5391 16.5ZM14.5078 4.45312C14.4609 4.96094 14.3594 5.47656 14.2031 6C14.6016 6.6875 15.125 7.25781 15.7734 7.71094C16.4219 8.16406 17.1445 8.45312 17.9414 8.57812C17.8633 8.10156 17.7266 7.65234 17.5312 7.23047C17.3359 6.80859 17.0898 6.41406 16.793 6.04688C16.4961 5.67969 16.1523 5.36719 15.7617 5.10938C15.3711 4.85156 14.9531 4.63281 14.5078 4.45312ZM13.0312 4.53516C12.2344 4.59766 11.4844 4.79297 10.7812 5.12109C10.0781 5.44922 9.44922 5.87891 8.89453 6.41016C8.33984 6.94141 7.88281 7.55469 7.52344 8.25C7.16406 8.94531 6.92578 9.68359 6.80859 10.4648C7.47266 10.4102 8.10156 10.2695 8.69531 10.043C9.28906 9.81641 9.83203 9.51172 10.3242 9.12891C10.8164 8.74609 11.2539 8.30859 11.6367 7.81641C12.0195 7.32422 12.3359 6.76172 12.5859 6.12891C12.6953 5.87109 12.7852 5.60937 12.8555 5.34375C12.9258 5.07813 12.9844 4.80859 13.0312 4.53516ZM2.625 2.89453C3.25 3.41016 3.94141 3.80469 4.69922 4.07812C5.45703 4.35156 6.24219 4.48828 7.05469 4.48828C7.8125 4.48828 8.54297 4.37109 9.24609 4.13672C9.94922 3.90234 10.6055 3.55859 11.2148 3.10547C10.5898 2.58984 9.89844 2.19531 9.14062 1.92188C8.38281 1.64844 7.59766 1.51172 6.78516 1.51172C6.02734 1.51172 5.29688 1.62891 4.59375 1.86328C3.89062 2.09766 3.23438 2.44141 2.625 2.89453ZM6.35156 11.9766C6.28906 11.9922 6.22656 12 6.16406 12C6.10156 12 6.03906 12 5.97656 12H5.60156C5.47656 12 5.35156 11.9922 5.22656 11.9766V11.4258C4.8125 12.3477 4.46484 13.2539 4.18359 14.1445C3.90234 15.0352 3.67187 15.9336 3.49219 16.8398C3.3125 17.7461 3.1875 18.6641 3.11719 19.5938C3.04688 20.5234 3.00781 21.4922 3 22.5H4.5C4.5 21.5547 4.53125 20.6406 4.59375 19.7578C4.65625 18.875 4.76172 18.0039 4.91016 17.1445C5.05859 16.2852 5.25 15.4297 5.48438 14.5781C5.71875 13.7266 6.00781 12.8594 6.35156 11.9766ZM11.5312 16.5H19.9688C19.8125 16.0547 19.5938 15.6484 19.3125 15.2812C19.0312 14.9141 18.707 14.5977 18.3398 14.332C17.9727 14.0664 17.5664 13.8633 17.1211 13.7227C16.6758 13.582 16.2188 13.5078 15.75 13.5C15.2734 13.5 14.8164 13.5703 14.3789 13.7109C13.9414 13.8516 13.5391 14.0547 13.1719 14.3203C12.8047 14.5859 12.4766 14.9023 12.1875 15.2695C11.8984 15.6367 11.6797 16.0469 11.5312 16.5Z" fill="black"/>
</g>
<defs>
<clipPath id="clip0_112_4">
<rect width="24" height="24" fill="white"/>
</clipPath>
</defs>
</svg>
