<svg width="24" height="24" viewBox="0 0 24 24" fill="none" xmlns="http://www.w3.org/2000/svg">
<g clip-path="url(#clip0_110_108)">
<path d="M6.33333 16C5.06667 16 4 17.0667 4 18.3333C4 19.6 5.06667 20.6667 6.33333 20.6667C7.6 20.6667 8.66667 19.6 8.66667 18.3333C8.66667 17.0667 7.6 16 6.33333 16ZM6.33333 19.3333C5.8 19.3333 5.33333 18.8667 5.33333 18.3333C5.33333 17.8 5.8 17.3333 6.33333 17.3333C6.86667 17.3333 7.33333 17.8 7.33333 18.3333C7.33333 18.8667 6.86667 19.3333 6.33333 19.3333Z" fill="black"/>
<path d="M15.6666 16C14.4 16 13.3333 17.0667 13.3333 18.3333C13.3333 19.6 14.3333 20.6667 15.6666 20.6667C16.9333 20.6667 18 19.6 18 18.3333C18 17.0667 16.9333 16 15.6666 16ZM15.6666 19.3333C15.1333 19.3333 14.6666 18.8667 14.6666 18.3333C14.6666 17.8 15.1333 17.3333 15.6666 17.3333C16.2 17.3333 16.6666 17.8 16.6666 18.3333C16.6666 18.8667 16.2 19.3333 15.6666 19.3333Z" fill="black"/>
<path d="M22 13.4V13.3333H21.9333L19.6 9.66668C20.6666 9.06668 21.3333 8.00001 21.3333 6.86668V6.46668C21.3333 4.73334 19.9333 3.33334 18.2 3.33334H12.5333C11.2666 3.33334 10.0666 4.13334 9.59998 5.33334H3.33331C2.19998 5.33334 1.33331 6.20001 1.33331 7.33334V18.6667H2.66665V7.33334C2.66665 6.93334 2.93331 6.66668 3.33331 6.66668H10.6L10.6666 6.13334C10.8666 5.26668 11.6 4.66668 12.4666 4.66668H18.1333C19.2 4.66668 20 5.46668 20 6.46668V6.80001C20 7.80001 19.2 8.60001 18.2 8.60001H16V14.6H21.2L21.3333 14.8V16.6667C21.3333 17.0667 21.0666 17.3333 20.6666 17.3333H19.3333V18.6667H20.6666C21.8 18.6667 22.6666 17.8 22.6666 16.6667V14.4667L22 13.4V13.4ZM17.3333 13.3333V10H18.3333L20.4 13.3333H17.3333Z" fill="black"/>
<path d="M12.6667 6H18V7.33333H12.6667V6Z" fill="black"/>
<path d="M13.3333 14.6667H14.6667V8.66666H10V18.6667H11.3333V9.99999H13.3333V14.6667Z" fill="black"/>
<path d="M4 13.3333H8.66667V8.66666H4V13.3333ZM5.33333 9.99999H7.33333V12H5.33333V9.99999Z" fill="black"/>
</g>
<defs>
<clipPath id="clip0_110_108">
<rect width="24" height="24" fill="white"/>
</clipPath>
</defs>
</svg>
